<svg width="697" height="697" viewBox="0 0 697 697" fill="none" xmlns="http://www.w3.org/2000/svg">
<path fill-rule="evenodd" clip-rule="evenodd" d="M534.674 469.629L662.145 597.389C674.036 609.435 674.014 628.891 661.968 640.909L625.703 677.092C613.785 689.111 594.329 689.089 582.311 677.043L454.84 549.282C449.086 543.516 445.895 535.704 445.904 527.512L445.928 506.648C400.704 541.925 343.848 562.852 282.024 562.782C134.952 562.615 15.9194 443.312 16.0862 296.24C16.2531 149.168 135.556 30.1352 282.628 30.3021C429.7 30.4689 548.733 149.772 548.566 296.844C548.496 358.668 527.44 415.476 492.06 460.62L512.924 460.644C521.116 460.653 528.921 463.862 534.674 469.629ZM448.773 240.994C448.773 237.581 448.773 234.168 448.529 230.756C463.879 219.543 477.281 205.65 488 190.05C473.868 196.143 458.518 200.532 442.68 202.237C459.005 192.488 471.431 177.132 477.279 158.85C462.172 167.869 445.116 174.45 427.33 177.862C412.954 162.506 392.487 153 369.827 153C326.213 153 291.126 188.343 291.126 231.731C291.126 237.825 291.858 243.918 293.076 249.768C227.777 246.355 169.543 215.156 130.801 167.381C123.979 179.081 120.081 192.487 120.081 207.112C120.081 234.412 133.969 258.543 155.167 272.681C142.254 272.194 130.07 268.538 119.593 262.688V263.662C119.593 301.931 146.64 333.618 182.701 340.931C176.123 342.637 169.056 343.612 161.99 343.612C156.873 343.612 152 343.124 147.127 342.394C157.117 373.594 186.112 396.263 220.711 396.994C193.665 418.2 159.796 430.631 123.005 430.631C116.426 430.631 110.335 430.387 104 429.657C138.843 452.081 180.264 465 224.853 465C369.585 465 448.773 345.074 448.773 240.994Z" fill="#1DA1F2"/>
</svg>
